<svg width="10" height="10" viewBox="0 0 10 10" fill="none" xmlns="http://www.w3.org/2000/svg">
<path d="M4.99143 3.23438C4.52335 3.23438 4.07445 3.42032 3.74348 3.75129C3.4125 4.08227 3.22656 4.53117 3.22656 4.99924C3.22656 5.46731 3.4125 5.91621 3.74348 6.24718C4.07445 6.57816 4.52335 6.7641 4.99143 6.7641C5.4595 6.7641 5.9084 6.57816 6.23937 6.24718C6.57035 5.91621 6.75629 5.46731 6.75629 4.99924C6.75629 4.53117 6.57035 4.08227 6.23937 3.75129C5.9084 3.42032 5.4595 3.23438 4.99143 3.23438Z" fill="#FE8800"/>
<path fill-rule="evenodd" clip-rule="evenodd" d="M2.15161 0.156923C4.03921 -0.0523077 5.94416 -0.0523077 7.83176 0.156923C8.86298 0.272047 9.69437 1.08388 9.81546 2.11891C10.0393 4.03292 10.0393 5.9665 9.81546 7.88051C9.69437 8.91553 8.86298 9.72737 7.8323 9.84303C5.94452 10.0523 4.03939 10.0523 2.15161 9.84303C1.12039 9.72737 0.289005 8.91553 0.167909 7.88105C-0.0559695 5.96686 -0.0559695 4.0331 0.167909 2.11891C0.289005 1.08388 1.12039 0.272047 2.15161 0.156923ZM7.70686 1.7415C7.56284 1.7415 7.42471 1.79871 7.32287 1.90055C7.22104 2.00239 7.16382 2.14051 7.16382 2.28453C7.16382 2.42855 7.22104 2.56668 7.32287 2.66852C7.42471 2.77036 7.56284 2.82757 7.70686 2.82757C7.85088 2.82757 7.989 2.77036 8.09084 2.66852C8.19268 2.56668 8.24989 2.42855 8.24989 2.28453C8.24989 2.14051 8.19268 2.00239 8.09084 1.90055C7.989 1.79871 7.85088 1.7415 7.70686 1.7415ZM2.41227 4.99971C2.41227 4.3156 2.68403 3.65952 3.16776 3.17578C3.6515 2.69205 4.30758 2.42029 4.99169 2.42029C5.67579 2.42029 6.33187 2.69205 6.81561 3.17578C7.29934 3.65952 7.5711 4.3156 7.5711 4.99971C7.5711 5.68381 7.29934 6.33989 6.81561 6.82363C6.33187 7.30736 5.67579 7.57912 4.99169 7.57912C4.30758 7.57912 3.6515 7.30736 3.16776 6.82363C2.68403 6.33989 2.41227 5.68381 2.41227 4.99971Z" fill="#FE8800"/>
</svg>
