<svg width="15" height="15" viewBox="0 0 15 15" fill="none" xmlns="http://www.w3.org/2000/svg">
<path d="M3.74943 0.209895C4.60795 0.835575 5.27645 1.68959 5.8473 2.50681L6.17929 2.99053L6.49251 3.45246C6.64918 3.68135 6.71616 3.95988 6.6807 4.23497C6.64524 4.51007 6.50981 4.7625 6.30022 4.94418L4.83479 6.03255C4.76399 6.08367 4.71416 6.15876 4.69454 6.24385C4.67492 6.32895 4.68686 6.41827 4.72813 6.49523C5.06013 7.09838 5.6505 7.99671 6.32651 8.67272C7.00326 9.34872 7.94366 9.97816 8.58887 10.3477C8.66977 10.3931 8.76499 10.4058 8.85496 10.3832C8.94493 10.3606 9.02281 10.3043 9.07259 10.226L10.0265 8.77412C10.2019 8.54116 10.4606 8.38509 10.7485 8.33861C11.0363 8.29213 11.331 8.35883 11.5708 8.52475L12.0688 8.86951C12.9994 9.51547 13.9992 10.2493 14.7638 11.228C14.8851 11.3841 14.9622 11.5699 14.9872 11.7659C15.0121 11.962 14.984 12.1612 14.9058 12.3427C14.2771 13.8096 12.6862 15.0587 11.0315 14.9979L10.8062 14.9851L10.6312 14.9701L10.4374 14.9475L10.2263 14.919L9.99721 14.8814C9.9571 14.8742 9.91704 14.8667 9.87703 14.8589L9.62466 14.8048C9.58052 14.7951 9.53646 14.7851 9.49246 14.7748L9.21755 14.7042L8.92837 14.6216L8.62643 14.5239C7.23987 14.0537 5.48 13.1298 3.67432 11.3242C1.86939 9.51923 0.945513 7.75936 0.475315 6.3728L0.37767 6.07085L0.295047 5.78167L0.224442 5.50676L0.165855 5.24688C0.148933 5.16548 0.133158 5.08385 0.118534 5.00202L0.0809787 4.77293L0.050934 4.56186L0.0291517 4.36807L0.0141293 4.19306L0.00211152 3.96773C-0.0587289 2.31828 1.2039 0.716147 2.66407 0.0904675C2.83981 0.0145799 3.03226 -0.0143128 3.22254 0.00662454C3.41282 0.0275619 3.59439 0.0976099 3.74943 0.209895ZM9.85976 2.91016L9.94689 2.91992C10.4936 3.01636 10.9958 3.28342 11.3814 3.68281C11.7671 4.08221 12.0164 4.59344 12.0936 5.14322C12.1211 5.33339 12.0747 5.52688 11.9639 5.68388C11.8532 5.84088 11.6864 5.94946 11.498 5.98727C11.3096 6.02508 11.1139 5.98926 10.9511 5.88717C10.7883 5.78507 10.6709 5.62448 10.6229 5.43841L10.6056 5.35204C10.5754 5.13654 10.4834 4.93441 10.3408 4.77006C10.1982 4.60571 10.011 4.48618 9.80192 4.42591L9.6855 4.39962C9.49689 4.36619 9.32818 4.26197 9.21387 4.10827C9.09957 3.95456 9.0483 3.763 9.07056 3.57275C9.09282 3.3825 9.18692 3.20794 9.33362 3.08478C9.48032 2.96161 9.66853 2.89915 9.85976 2.91016ZM9.86577 0.626764C11.061 0.626764 12.2073 1.10158 13.0525 1.94675C13.8977 2.79191 14.3725 3.93821 14.3725 5.13346C14.3723 5.3249 14.2989 5.50904 14.1675 5.64825C14.0361 5.78746 13.8565 5.87123 13.6654 5.88245C13.4743 5.89367 13.2861 5.83149 13.1393 5.70862C12.9924 5.58574 12.8981 5.41145 12.8755 5.22134L12.8702 5.13346C12.8705 4.37064 12.5805 3.63631 12.059 3.07955C11.5376 2.5228 10.8238 2.18536 10.0626 2.13576L9.86577 2.129C9.66656 2.129 9.47551 2.04986 9.33465 1.909C9.19379 1.76814 9.11465 1.57709 9.11465 1.37788C9.11465 1.17867 9.19379 0.987623 9.33465 0.846761C9.47551 0.705899 9.66656 0.626764 9.86577 0.626764Z" fill="#FE8800"/>
</svg>
