<svg width="13" height="10" viewBox="0 0 13 10" fill="none" xmlns="http://www.w3.org/2000/svg">
<path d="M12.2992 1.18711C11.8387 1.39081 11.3505 1.52462 10.8505 1.58413C11.3773 1.26865 11.7714 0.772433 11.9595 0.187921C11.4647 0.482368 10.9223 0.688722 10.3575 0.800346C9.97777 0.394021 9.47441 0.124544 8.92569 0.03381C8.37698 -0.0569246 7.81366 0.0361669 7.32332 0.298612C6.83297 0.561057 6.44307 0.978151 6.21422 1.48505C5.98538 1.99195 5.93042 2.56026 6.05788 3.10162C5.05443 3.05141 4.07276 2.79071 3.17661 2.33646C2.28046 1.8822 1.48988 1.24453 0.856188 0.46487C0.631908 0.850095 0.514048 1.28801 0.514679 1.73377C0.514679 2.60866 0.960572 3.38158 1.63696 3.83411C1.23632 3.82148 0.844512 3.71328 0.494164 3.51855V3.54932C0.494146 4.1321 0.695711 4.69695 1.06467 5.14807C1.43364 5.59918 1.94728 5.90878 2.51849 6.02436C2.14659 6.12525 1.7566 6.14011 1.37811 6.06781C1.53916 6.56945 1.85309 7.00815 2.27593 7.32246C2.69876 7.63678 3.20932 7.81096 3.7361 7.82061C3.21258 8.23178 2.61315 8.53572 1.97207 8.71503C1.331 8.89435 0.660869 8.94553 0 8.86565C1.15348 9.60743 2.49622 10.0012 3.86763 10C8.50999 10 11.0478 6.15469 11.0478 2.81984C11.0478 2.71123 11.0454 2.60142 11.0405 2.49342C11.5344 2.13643 11.9606 1.69368 12.2992 1.18711Z" fill="#FE8800"/>
</svg>
