<svg width="16" height="10" viewBox="0 0 16 10" fill="none" xmlns="http://www.w3.org/2000/svg">
<path d="M10.3771 5.02109L14.2493 1.65691V8.34687L10.3771 5.02109ZM5.38747 5.59081L6.74725 6.77117C6.96065 6.95247 7.2389 7.06201 7.54297 7.06201H7.55367H7.56185C7.86654 7.06201 8.14479 6.95184 8.36072 6.76928L8.35883 6.77054L9.7186 5.59018L13.8521 9.14007H1.2559L5.38747 5.59081ZM1.25024 0.859301H13.8596L7.80296 6.11961C7.73486 6.17347 7.65056 6.20275 7.56374 6.20271H7.55493H7.54674C7.45961 6.20282 7.37503 6.17329 7.30689 6.11898L7.30752 6.11961L1.25024 0.859301ZM0.859301 1.65628L4.73088 5.02046L0.859301 8.34435V1.65628ZM14.457 0.11961C14.3059 0.0440668 14.1284 0 13.9402 0H1.17029C0.987826 4.35851e-05 0.807872 0.0424996 0.644633 0.124016L0.651558 0.120869C0.456137 0.217256 0.291563 0.36637 0.176427 0.551366C0.0612909 0.736363 0.000180893 0.949869 0 1.16777L0 8.83034C0.000333273 9.14045 0.123672 9.43777 0.342953 9.65705C0.562234 9.87633 0.859547 9.99967 1.16966 10H13.9383C14.2484 9.99967 14.5457 9.87633 14.765 9.65705C14.9843 9.43777 15.1076 9.14045 15.108 8.83034V1.16777C15.108 0.710104 14.8442 0.313503 14.4602 0.122757L14.4533 0.11961H14.457Z" fill="white"/>
</svg>
