<svg width="22" height="22" viewBox="0 0 22 22" fill="none" xmlns="http://www.w3.org/2000/svg">
<path d="M19.7572 3.66659C19.6739 3.65801 19.59 3.65801 19.5067 3.66659H2.39554C2.28588 3.66828 2.17694 3.68473 2.07166 3.71548L10.9022 12.5094L19.7572 3.66659Z" fill="#FE8800"/>
<path d="M20.6617 4.51611L11.7639 13.3772C11.5349 13.6049 11.2251 13.7326 10.9022 13.7326C10.5793 13.7326 10.2696 13.6049 10.0406 13.3772L1.22222 4.58334C1.19511 4.68297 1.18074 4.78564 1.17944 4.88889V17.1111C1.17944 17.4353 1.30821 17.7461 1.53742 17.9754C1.76664 18.2046 2.07751 18.3333 2.40167 18.3333H19.5128C19.8369 18.3333 20.1478 18.2046 20.377 17.9754C20.6062 17.7461 20.735 17.4353 20.735 17.1111V4.88889C20.7301 4.76157 20.7054 4.63579 20.6617 4.51611ZM3.23889 17.1111H2.38944V16.2372L6.83222 11.8311L7.69389 12.6928L3.23889 17.1111ZM19.5006 17.1111H18.645L14.19 12.6928L15.0517 11.8311L19.4944 16.2372L19.5006 17.1111Z" fill="#FE8800"/>
</svg>
