<svg width="25" height="25" viewBox="0 0 25 25" fill="none" xmlns="http://www.w3.org/2000/svg">
<circle cx="12.5" cy="12.5" r="12.5" fill="#0A0F11" fill-opacity="0.14"/>
<path d="M12.9914 10.2344C12.5234 10.2344 12.0745 10.4203 11.7435 10.7513C11.4125 11.0823 11.2266 11.5312 11.2266 11.9992C11.2266 12.4673 11.4125 12.9162 11.7435 13.2472C12.0745 13.5782 12.5234 13.7641 12.9914 13.7641C13.4595 13.7641 13.9084 13.5782 14.2394 13.2472C14.5703 12.9162 14.7563 12.4673 14.7563 11.9992C14.7563 11.5312 14.5703 11.0823 14.2394 10.7513C13.9084 10.4203 13.4595 10.2344 12.9914 10.2344Z" fill="#FE8800"/>
<path fill-rule="evenodd" clip-rule="evenodd" d="M10.1516 7.15692C12.0392 6.94769 13.9442 6.94769 15.8318 7.15692C16.863 7.27205 17.6944 8.08388 17.8155 9.11891C18.0393 11.0329 18.0393 12.9665 17.8155 14.8805C17.6944 15.9155 16.863 16.7274 15.8323 16.843C13.9445 17.0523 12.0394 17.0523 10.1516 16.843C9.12039 16.7274 8.28901 15.9155 8.16791 14.881C7.94403 12.9669 7.94403 11.0331 8.16791 9.11891C8.28901 8.08388 9.12039 7.27205 10.1516 7.15692ZM15.7069 8.7415C15.5628 8.7415 15.4247 8.79871 15.3229 8.90055C15.221 9.00239 15.1638 9.14051 15.1638 9.28453C15.1638 9.42855 15.221 9.56668 15.3229 9.66852C15.4247 9.77036 15.5628 9.82757 15.7069 9.82757C15.8509 9.82757 15.989 9.77036 16.0908 9.66852C16.1927 9.56668 16.2499 9.42855 16.2499 9.28453C16.2499 9.14051 16.1927 9.00239 16.0908 8.90055C15.989 8.79871 15.8509 8.7415 15.7069 8.7415ZM10.4123 11.9997C10.4123 11.3156 10.684 10.6595 11.1678 10.1758C11.6515 9.69205 12.3076 9.42029 12.9917 9.42029C13.6758 9.42029 14.3319 9.69205 14.8156 10.1758C15.2993 10.6595 15.5711 11.3156 15.5711 11.9997C15.5711 12.6838 15.2993 13.3399 14.8156 13.8236C14.3319 14.3074 13.6758 14.5791 12.9917 14.5791C12.3076 14.5791 11.6515 14.3074 11.1678 13.8236C10.684 13.3399 10.4123 12.6838 10.4123 11.9997Z" fill="#FE8800"/>
</svg>
