<svg width="22" height="22" viewBox="0 0 22 22" fill="none" xmlns="http://www.w3.org/2000/svg">
<path d="M19.7578 3.66659C19.6745 3.65801 19.5906 3.65801 19.5073 3.66659H2.39615C2.28649 3.66828 2.17755 3.68473 2.07227 3.71548L10.9028 12.5094L19.7578 3.66659Z" fill="#FE8800"/>
<path d="M20.6619 4.51562L11.7641 13.3767C11.5351 13.6044 11.2254 13.7322 10.9025 13.7322C10.5796 13.7322 10.2698 13.6044 10.0408 13.3767L1.22247 4.58285C1.19536 4.68248 1.18098 4.78515 1.17969 4.8884V17.1106C1.17969 17.4348 1.30846 17.7457 1.53767 17.9749C1.76688 18.2041 2.07776 18.3328 2.40191 18.3328H19.513C19.8372 18.3328 20.1481 18.2041 20.3773 17.9749C20.6065 17.7457 20.7352 17.4348 20.7352 17.1106V4.8884C20.7304 4.76108 20.7056 4.6353 20.6619 4.51562ZM3.23913 17.1106H2.38969V16.2367L6.83247 11.8306L7.69413 12.6923L3.23913 17.1106ZM19.5008 17.1106H18.6452L14.1902 12.6923L15.0519 11.8306L19.4947 16.2367L19.5008 17.1106Z" fill="#FE8800"/>
</svg>
