<svg width="25" height="25" viewBox="0 0 25 25" fill="none" xmlns="http://www.w3.org/2000/svg">
<circle cx="12.5" cy="12.5" r="12.5" fill="#0A0F11" fill-opacity="0.14"/>
<path d="M12.9917 10.2349C12.5236 10.2349 12.0747 10.4208 11.7437 10.7518C11.4127 11.0828 11.2268 11.5317 11.2268 11.9997C11.2268 12.4678 11.4127 12.9167 11.7437 13.2477C12.0747 13.5786 12.5236 13.7646 12.9917 13.7646C13.4597 13.7646 13.9086 13.5786 14.2396 13.2477C14.5706 12.9167 14.7565 12.4678 14.7565 11.9997C14.7565 11.5317 14.5706 11.0828 14.2396 10.7518C13.9086 10.4208 13.4597 10.2349 12.9917 10.2349Z" fill="#FE8800"/>
<path fill-rule="evenodd" clip-rule="evenodd" d="M10.1516 7.15692C12.0392 6.94769 13.9442 6.94769 15.8318 7.15692C16.863 7.27205 17.6944 8.08388 17.8155 9.11891C18.0393 11.0329 18.0393 12.9665 17.8155 14.8805C17.6944 15.9155 16.863 16.7274 15.8323 16.843C13.9445 17.0523 12.0394 17.0523 10.1516 16.843C9.12039 16.7274 8.28901 15.9155 8.16791 14.881C7.94403 12.9669 7.94403 11.0331 8.16791 9.11891C8.28901 8.08388 9.12039 7.27205 10.1516 7.15692ZM15.7069 8.7415C15.5628 8.7415 15.4247 8.79871 15.3229 8.90055C15.221 9.00239 15.1638 9.14051 15.1638 9.28453C15.1638 9.42855 15.221 9.56668 15.3229 9.66852C15.4247 9.77036 15.5628 9.82757 15.7069 9.82757C15.8509 9.82757 15.989 9.77036 16.0908 9.66852C16.1927 9.56668 16.2499 9.42855 16.2499 9.28453C16.2499 9.14051 16.1927 9.00239 16.0908 8.90055C15.989 8.79871 15.8509 8.7415 15.7069 8.7415ZM10.4123 11.9997C10.4123 11.3156 10.684 10.6595 11.1678 10.1758C11.6515 9.69205 12.3076 9.42029 12.9917 9.42029C13.6758 9.42029 14.3319 9.69205 14.8156 10.1758C15.2993 10.6595 15.5711 11.3156 15.5711 11.9997C15.5711 12.6838 15.2993 13.3399 14.8156 13.8236C14.3319 14.3074 13.6758 14.5791 12.9917 14.5791C12.3076 14.5791 11.6515 14.3074 11.1678 13.8236C10.684 13.3399 10.4123 12.6838 10.4123 11.9997Z" fill="#FE8800"/>
</svg>
