<svg width="40" height="40" viewBox="0 0 40 40" fill="none" xmlns="http://www.w3.org/2000/svg">
<rect width="40" height="40" rx="5" transform="matrix(-1 0 0 1 40 0)" fill="#FE8800"/>
<path d="M24.0112 11.1688L16.1719 19.5555C16.0618 19.6734 16 19.8333 16 20C16 20.1667 16.0618 20.3266 16.1719 20.4445L24.0112 28.8312C24.1227 28.9423 24.2701 29.0028 24.4224 28.9999C24.5747 28.997 24.7201 28.931 24.8278 28.8158C24.9355 28.7005 24.9972 28.545 24.9999 28.3821C25.0026 28.2191 24.9461 28.0614 24.8422 27.9422L17.4194 20L24.8422 12.0578C24.9461 11.9386 25.0026 11.7809 24.9999 11.6179C24.9972 11.455 24.9355 11.2995 24.8278 11.1842C24.7201 11.069 24.5747 11.003 24.4224 11.0001C24.2701 10.9972 24.1227 11.0577 24.0112 11.1688Z" fill="white"/>
</svg>
