<svg width="9" height="18" viewBox="0 0 9 18" fill="none" xmlns="http://www.w3.org/2000/svg">
<path d="M8.01124 0.168816L0.171946 8.5555C0.0618424 8.67344 -5.52986e-07 8.83331 -5.60272e-07 9C-5.67558e-07 9.16669 0.0618423 9.32656 0.171946 9.44449L8.01124 17.8312C8.12269 17.9423 8.27011 18.0028 8.42242 17.9999C8.57474 17.997 8.72007 17.931 8.82779 17.8158C8.93552 17.7005 8.99722 17.545 8.99991 17.3821C9.0026 17.2191 8.94606 17.0614 8.8422 16.9422L1.41937 9L8.8422 1.05781C8.94606 0.938568 9.0026 0.780859 8.99991 0.617905C8.99722 0.45495 8.93552 0.299475 8.82779 0.184231C8.72007 0.0689869 8.57474 0.00297354 8.42243 9.72495e-05C8.27011 -0.00277713 8.12269 0.0577087 8.01124 0.168816Z" fill="white"/>
</svg>
