<svg width="13" height="17" viewBox="0 0 13 17" fill="none" xmlns="http://www.w3.org/2000/svg">
<path d="M3.987 1.06599L3.27 1.28199C2.63158 1.47452 2.06144 1.84541 1.62669 2.35103C1.19194 2.85664 0.910678 3.47592 0.816001 4.13599C0.519001 6.20399 1.183 8.62199 2.784 11.395C4.381 14.161 6.139 15.943 8.074 16.723C8.69573 16.9736 9.37633 17.0403 10.0349 16.9154C10.6935 16.7904 11.3023 16.4789 11.789 16.018L12.331 15.504C12.6829 15.1709 12.902 14.7214 12.9474 14.2389C12.9929 13.7565 12.8616 13.2739 12.578 12.881L11.222 11.001C11.0387 10.7472 10.7805 10.5571 10.4837 10.4574C10.1869 10.3577 9.86638 10.3533 9.567 10.445L7.516 11.072L7.463 11.082C7.237 11.115 6.715 10.626 6.065 9.49999C5.385 8.32199 5.245 7.63299 5.432 7.45499L6.475 6.48199C6.85641 6.12645 7.11696 5.66043 7.22008 5.14931C7.3232 4.63818 7.26373 4.1076 7.05 3.63199L6.388 2.16099C6.18894 1.71833 5.8357 1.36317 5.39413 1.1617C4.95256 0.960235 4.4518 0.926217 3.987 1.06599ZM5.477 2.57099L6.137 4.04199C6.26554 4.32722 6.30148 4.64555 6.23978 4.95227C6.17808 5.25898 6.02183 5.53865 5.793 5.75199L4.747 6.72599C4.078 7.35999 4.3 8.44199 5.2 9.99999C6.046 11.466 6.818 12.19 7.648 12.064L7.772 12.038L9.86 11.401C9.95981 11.3703 10.0667 11.3717 10.1657 11.4049C10.2647 11.438 10.3508 11.5014 10.412 11.586L11.768 13.466C11.91 13.6624 11.9758 13.9038 11.9532 14.1451C11.9305 14.3864 11.821 14.6114 11.645 14.778L11.102 15.292C10.7543 15.621 10.3195 15.8433 9.84925 15.9325C9.37896 16.0216 8.89296 15.9739 8.449 15.795C6.751 15.111 5.146 13.484 3.651 10.895C2.152 8.29999 1.545 6.09299 1.806 4.27799C1.87356 3.80642 2.07445 3.36397 2.38502 3.00273C2.69559 2.6415 3.1029 2.37652 3.559 2.23899L4.276 2.02299C4.50846 1.95314 4.75839 1.97022 4.97918 2.07105C5.19997 2.17188 5.37656 2.34957 5.476 2.57099H5.477Z" fill="white"/>
</svg>
