<svg width="40" height="40" viewBox="0 0 40 40" fill="none" xmlns="http://www.w3.org/2000/svg">
<rect width="40" height="40" rx="5" fill="#FE8800"/>
<path d="M15.9888 11.1688L23.8281 19.5555C23.9382 19.6734 24 19.8333 24 20C24 20.1667 23.9382 20.3266 23.8281 20.4445L15.9888 28.8312C15.8773 28.9423 15.7299 29.0028 15.5776 28.9999C15.4253 28.997 15.2799 28.931 15.1722 28.8158C15.0645 28.7005 15.0028 28.545 15.0001 28.3821C14.9974 28.2191 15.0539 28.0614 15.1578 27.9422L22.5806 20L15.1578 12.0578C15.0539 11.9386 14.9974 11.7809 15.0001 11.6179C15.0028 11.455 15.0645 11.2995 15.1722 11.1842C15.2799 11.069 15.4253 11.003 15.5776 11.0001C15.7299 10.9972 15.8773 11.0577 15.9888 11.1688Z" fill="white"/>
</svg>
