<svg width="9" height="18" viewBox="0 0 9 18" fill="none" xmlns="http://www.w3.org/2000/svg">
<path d="M0.988763 0.168816L8.82805 8.5555C8.93816 8.67344 9 8.83331 9 9C9 9.16669 8.93816 9.32656 8.82805 9.44449L0.988763 17.8312C0.877308 17.9423 0.729894 18.0028 0.577576 17.9999C0.425257 17.997 0.279928 17.931 0.172206 17.8158C0.0644842 17.7005 0.00277906 17.545 9.15719e-05 17.3821C-0.00259591 17.2191 0.0539441 17.0614 0.157799 16.9422L7.58063 9L0.157798 1.05781C0.0539434 0.938568 -0.00259663 0.780859 9.08391e-05 0.617905C0.00277831 0.45495 0.0644835 0.299475 0.172206 0.184231C0.279928 0.0689869 0.425256 0.00297354 0.577575 9.72495e-05C0.729893 -0.00277713 0.877307 0.0577087 0.988763 0.168816Z" fill="white"/>
</svg>
