<svg width="20" height="16" viewBox="0 0 20 16" fill="none" xmlns="http://www.w3.org/2000/svg">
<path d="M-3.4969e-07 7.99996C-3.41129e-07 7.80412 0.0820958 7.6163 0.228229 7.47781C0.374363 7.33933 0.572563 7.26153 0.779226 7.26153L17.317 7.26153L10.8822 1.26545C10.8092 1.19744 10.751 1.11647 10.711 1.02716C10.6711 0.937858 10.65 0.841966 10.6492 0.744962C10.6483 0.647959 10.6676 0.551743 10.706 0.461808C10.7444 0.371874 10.801 0.289982 10.8728 0.220808C10.9446 0.151635 11.03 0.0965339 11.1243 0.0586521C11.2185 0.0207702 11.3197 0.00084907 11.422 2.62358e-05C11.6288 -0.00163555 11.8277 0.0745949 11.9752 0.211947L19.7659 7.47223C19.7694 7.47544 19.7729 7.47872 19.7762 7.48208C19.8491 7.55222 19.9064 7.63544 19.9448 7.72685C19.9831 7.81827 20.0019 7.91603 19.9999 8.01441C19.9978 8.11278 19.9751 8.20978 19.9329 8.2997C19.8908 8.38962 19.8301 8.47065 19.7544 8.53804L11.9752 15.788C11.9022 15.856 11.8158 15.9097 11.7209 15.9461C11.6261 15.9825 11.5246 16.0008 11.4222 16C11.3199 15.9992 11.2187 15.9793 11.1245 15.9414C11.0303 15.9036 10.9448 15.8485 10.8731 15.7794C10.8013 15.7102 10.7446 15.6284 10.7062 15.5385C10.6678 15.4486 10.6485 15.3524 10.6494 15.2554C10.6502 15.1584 10.6712 15.0625 10.7111 14.9732C10.7511 14.8839 10.8092 14.803 10.8822 14.735L17.317 8.7384L0.779226 8.7384C0.572563 8.7384 0.374363 8.6606 0.228229 8.52211C0.0820957 8.38363 -3.5825e-07 8.19581 -3.4969e-07 7.99996Z" fill="white"/>
</svg>
