<svg width="20" height="20" viewBox="0 0 20 20" fill="none" xmlns="http://www.w3.org/2000/svg">
<path d="M14.6568 12.8982H13.7306L13.4023 12.5816C14.135 11.7304 14.6705 10.7278 14.9704 9.64545C15.2704 8.56313 15.3274 7.42789 15.1374 6.32096C14.5864 3.06167 11.8664 0.458926 8.5837 0.0603082C7.4296 -0.0856965 6.2574 0.0342475 5.15679 0.410962C4.05617 0.787676 3.05633 1.41118 2.23375 2.23375C1.41118 3.05633 0.787676 4.05617 0.410962 5.15679C0.0342475 6.2574 -0.0856965 7.4296 0.0603082 8.5837C0.458926 11.8664 3.06167 14.5864 6.32096 15.1374C7.42789 15.3274 8.56313 15.2704 9.64545 14.9704C10.7278 14.6705 11.7304 14.135 12.5816 13.4023L12.8982 13.7306V14.6568L17.8809 19.6395C18.3616 20.1202 19.1471 20.1202 19.6278 19.6395C20.1084 19.1588 20.1084 18.3733 19.6278 17.8926L14.6568 12.8982ZM7.62233 12.8982C4.70304 12.8982 2.3465 10.5416 2.3465 7.62233C2.3465 4.70304 4.70304 2.3465 7.62233 2.3465C10.5416 2.3465 12.8982 4.70304 12.8982 7.62233C12.8982 10.5416 10.5416 12.8982 7.62233 12.8982Z" fill="white"/>
</svg>
