<svg width="25" height="25" viewBox="0 0 25 25" fill="none" xmlns="http://www.w3.org/2000/svg">
<circle cx="12.5" cy="12.5" r="12.5" fill="#0A0F11" fill-opacity="0.14"/>
<path d="M18.2992 8.18711C17.8387 8.39081 17.3505 8.52462 16.8505 8.58413C17.3773 8.26865 17.7714 7.77243 17.9595 7.18792C17.4647 7.48237 16.9223 7.68872 16.3575 7.80035C15.9778 7.39402 15.4744 7.12454 14.9257 7.03381C14.377 6.94308 13.8137 7.03617 13.3233 7.29861C12.833 7.56106 12.4431 7.97815 12.2142 8.48505C11.9854 8.99195 11.9304 9.56026 12.0579 10.1016C11.0544 10.0514 10.0728 9.79071 9.17661 9.33646C8.28046 8.8822 7.48988 8.24453 6.85619 7.46487C6.63191 7.85009 6.51405 8.28801 6.51468 8.73377C6.51468 9.60866 6.96057 10.3816 7.63696 10.8341C7.23632 10.8215 6.84451 10.7133 6.49416 10.5185V10.5493C6.49415 11.1321 6.69571 11.697 7.06467 12.1481C7.43364 12.5992 7.94728 12.9088 8.51849 13.0244C8.14659 13.1253 7.7566 13.1401 7.37811 13.0678C7.53916 13.5694 7.85309 14.0081 8.27593 14.3225C8.69876 14.6368 9.20932 14.811 9.7361 14.8206C9.21258 15.2318 8.61315 15.5357 7.97207 15.715C7.331 15.8944 6.66087 15.9455 6 15.8657C7.15348 16.6074 8.49622 17.0012 9.86763 17C14.51 17 17.0478 13.1547 17.0478 9.81984C17.0478 9.71123 17.0454 9.60142 17.0405 9.49342C17.5344 9.13643 17.9606 8.69368 18.2992 8.18711Z" fill="#FE8800"/>
</svg>
