<svg width="25" height="25" viewBox="0 0 25 25" fill="none" xmlns="http://www.w3.org/2000/svg">
<circle cx="12.5" cy="12.5" r="12.5" fill="#0A0F11" fill-opacity="0.14"/>
<path d="M16.5076 8.00057H9.49236C8.1154 8.00057 7 9.05155 7 10.3482V13.6518C7 14.9485 8.116 16 9.49236 16H16.5076C17.8846 16 19 14.9485 19 13.6518V10.3482C19 9.05155 17.884 8 16.5076 8V8.00057ZM14.8222 12.1604L11.541 13.6352C11.5209 13.6443 11.4988 13.6486 11.4766 13.6474C11.4545 13.6462 11.433 13.6398 11.4141 13.6286C11.3953 13.6174 11.3797 13.6018 11.3689 13.5833C11.358 13.5648 11.3523 13.5441 11.3522 13.5229V10.4822C11.3526 10.461 11.3586 10.4402 11.3697 10.4217C11.3809 10.4033 11.3967 10.3878 11.4158 10.3768C11.4349 10.3658 11.4566 10.3595 11.4789 10.3586C11.5012 10.3577 11.5234 10.3622 11.5434 10.3717L14.8252 11.9381C14.8471 11.9485 14.8654 11.9646 14.8781 11.9844C14.8909 12.0043 14.8974 12.0272 14.8971 12.0504C14.8968 12.0737 14.8896 12.0964 14.8764 12.116C14.8631 12.1355 14.8443 12.1505 14.8222 12.1604Z" fill="#FE8800"/>
</svg>
