<svg width="12" height="8" viewBox="0 0 12 8" fill="none" xmlns="http://www.w3.org/2000/svg">
<path d="M9.50764 0.000572738H2.49236C1.1154 0.000572738 0 1.05155 0 2.34822V5.65178C0 6.94845 1.116 8 2.49236 8H9.50764C10.8846 8 12 6.94845 12 5.65178V2.34822C12 1.05155 10.884 0 9.50764 0V0.000572738ZM7.82222 4.16037L4.54096 5.63517C4.52095 5.64434 4.49882 5.64855 4.47664 5.6474C4.45446 5.64624 4.43295 5.63976 4.41411 5.62856C4.39527 5.61735 4.37971 5.60179 4.36887 5.58332C4.35804 5.56485 4.35229 5.54407 4.35216 5.52291V2.48225C4.35256 2.46098 4.3586 2.44016 4.36973 2.42172C4.38085 2.40328 4.3967 2.38783 4.41579 2.37679C4.43487 2.36576 4.45658 2.3595 4.47889 2.35861C4.5012 2.35773 4.52338 2.36223 4.54337 2.37171L7.82522 3.93814C7.84708 3.94853 7.86542 3.96457 7.87814 3.98444C7.89086 4.0043 7.89744 4.02718 7.89712 4.05044C7.89681 4.0737 7.88962 4.09641 7.87637 4.11596C7.86312 4.1355 7.84435 4.15052 7.82222 4.16037Z" fill="#FE8800"/>
</svg>
